<svg xmlns="http://www.w3.org/2000/svg" version="1.1" xmlns:xlink="http://www.w3.org/1999/xlink" xmlns:svgjs="http://svgjs.dev/svgjs" width="2000" height="1186" viewBox="0 0 2000 1186"><g transform="matrix(1,0,0,1,-1.2121212121212466,-1.111519490134242)"><svg viewBox="0 0 396 235" data-background-color="#ffffff" preserveAspectRatio="xMidYMid meet" height="1186" width="2000" xmlns="http://www.w3.org/2000/svg" xmlns:xlink="http://www.w3.org/1999/xlink"><g id="tight-bounds" transform="matrix(1,0,0,1,0.2400000000000091,0.22024205748866166)"><svg viewBox="0 0 395.52 234.55951588502268" height="234.55951588502268" width="395.52"><g><svg viewBox="0 0 395.52 234.55951588502268" height="234.55951588502268" width="395.52"><g><svg viewBox="0 0 395.52 234.55951588502268" height="234.55951588502268" width="395.52"><g id="textblocktransform"><svg viewBox="0 0 395.52 234.55951588502268" height="234.55951588502268" width="395.52" id="textblock"><g><svg viewBox="0 0 395.52 234.55951588502268" height="234.55951588502268" width="395.52"><g transform="matrix(1,0,0,1,0,0)"><svg width="395.52" viewBox="-0.49 -37.11 64.55 38.28" height="234.55951588502268" data-palette-color="#e47161"><path d="M4.98-0.63L4.64-0.78Q4.49-0.68 4.35-0.59 4.2-0.49 4.05-0.39L4.05-0.39Q3.52-0.1 3.08-0.07 2.64-0.05 2.1 0.44L2.1 0.44Q1.9 0.2 1.81 0.2 1.71 0.2 1.46 0.2L1.46 0.2Q0.83 0.2 0.73-0.15L0.73-0.15Q0.54-0.1 0.12 0.1-0.29 0.29-0.49 0.39L-0.49 0.39Q-0.05-0.24 0.1-0.59 0.24-0.93 0.27-1.22 0.29-1.51 0.32-1.83 0.34-2.15 0.54-2.73L0.54-2.73Q0.63-2.93 0.68-3.13 0.73-3.32 0.83-3.56L0.83-3.56Q1.07-4.3 1.25-5.22 1.42-6.15 1.81-6.84L1.81-6.84Q1.81-7.67 2.17-8.4 2.54-9.13 2.78-9.91L2.78-9.91Q2.88-10.21 3.05-10.5 3.22-10.79 3.32-11.08L3.32-11.08Q3.52-11.57 3.64-12.04 3.76-12.5 3.91-12.94L3.91-12.94Q4.3-14.36 4.69-15.75 5.08-17.14 5.42-18.55L5.42-18.55Q5.47-18.8 5.54-19.09 5.62-19.38 5.71-19.63L5.71-19.63Q5.96-20.36 6.03-21.12 6.1-21.88 6.49-22.56L6.49-22.56Q6.45-22.9 6.52-23.19 6.59-23.49 6.69-23.83 6.79-24.17 6.88-24.46 6.98-24.76 7.03-24.9L7.03-24.9Q7.28-25.54 7.4-26.05 7.52-26.56 7.91-27.15L7.91-27.15Q7.91-27.15 8.06-27.66 8.2-28.17 8.4-28.81 8.59-29.44 8.74-30 8.89-30.57 8.89-30.66L8.89-30.66Q8.98-31.05 9.06-31.4 9.13-31.74 9.23-32.13L9.23-32.13Q9.33-32.37 9.42-32.54 9.52-32.71 9.62-32.96L9.62-32.96Q9.77-33.5 9.91-34.28 10.06-35.06 10.3-35.5L10.3-35.5Q10.45-35.84 10.86-36.06 11.28-36.28 11.57-36.52L11.57-36.52Q12.45-36.43 12.87-36.62 13.28-36.82 13.67-37.11L13.67-37.11Q13.92-37.06 14.14-36.99 14.36-36.91 14.6-36.91L14.6-36.91Q15.53-35.89 15.89-34.81 16.26-33.74 16.6-32.67L16.6-32.67Q16.75-32.13 16.89-31.62 17.04-31.1 17.24-30.62L17.24-30.62Q17.29-30.47 17.38-30.3 17.48-30.13 17.58-29.93L17.58-29.93Q17.82-29.54 17.99-29.1 18.16-28.66 18.31-28.22L18.31-28.22Q18.6-27.88 18.75-27.42 18.9-26.95 19.02-26.49 19.14-26.03 19.29-25.61 19.43-25.2 19.73-24.9L19.73-24.9Q19.82-24.37 20.07-23.85 20.31-23.34 20.41-22.75L20.41-22.75Q20.7-22.36 21.09-21.26 21.48-20.17 21.88-18.9 22.27-17.63 22.61-16.46 22.95-15.28 23.1-14.79L23.1-14.79Q23.19-14.4 23.49-13.79 23.78-13.18 24.02-12.7L24.02-12.7Q24.22-12.16 24.44-11.57 24.66-10.99 24.8-10.45L24.8-10.45Q24.9-9.91 25.02-9.42 25.15-8.94 25.29-8.4L25.29-8.4Q25.39-8.06 25.59-7.79 25.78-7.52 25.88-7.13L25.88-7.13Q26.07-6.74 26.15-6.4 26.22-6.05 26.46-5.66L26.46-5.66Q26.42-5.13 26.51-4.98 26.61-4.83 26.71-4.64L26.71-4.64Q26.9-3.61 27.15-3 27.39-2.39 27.39-1.71L27.39-1.71Q27.39-1.12 27.17-0.98 26.95-0.83 26.61-0.49L26.61-0.49Q26.22-0.15 25.95 0.05 25.68 0.24 25.15 0.24L25.15 0.24Q24.56 0.2 24.44 0.42 24.32 0.63 24.27 0.73L24.27 0.73Q23.68 0.68 23.51 0.71 23.34 0.73 23.17 0.73 23 0.73 22.83 0.81 22.66 0.88 22.46 1.12L22.46 1.12Q22.12 0.73 21.8 0.42 21.48 0.1 21.24-0.29L21.24-0.29Q21.24-1.12 21.02-2.25 20.8-3.37 20.56-4L20.56-4Q20.07-5.27 19.65-6.49 19.24-7.71 18.85-8.98L18.85-8.98Q18.7-9.52 18.53-9.96 18.36-10.4 18.16-10.89L18.16-10.89Q18.26-10.5 18.24-10.08 18.21-9.67 17.97-9.28L17.97-9.28Q17.87-9.18 17.68-9.03 17.48-8.89 17.48-8.79L17.48-8.79Q16.89-8.3 16.46-7.86L16.46-7.86Q16.5-6.98 16.21-6.64 15.92-6.3 15.58-6.01L15.58-6.01Q14.75-5.96 14.55-6.1 14.36-6.25 14.01-6.3L14.01-6.3Q13.82-6.35 13.62-6.32 13.43-6.3 13.23-6.3L13.23-6.3Q12.84-6.3 12.5-6.49L12.5-6.49Q12.35-6.59 12.28-6.69 12.21-6.79 12.11-6.88L12.11-6.88Q11.72-7.28 11.21-7.54 10.69-7.81 10.21-8.01L10.21-8.01Q9.81-8.35 9.4-8.72 8.98-9.08 8.54-9.33L8.54-9.33Q8.15-8.4 7.93-7.69 7.71-6.98 7.42-6.3L7.42-6.3Q6.88-4.64 6.54-3.39 6.2-2.15 5.76-0.88L5.76-0.88Q5.57-0.83 5.4-0.73 5.22-0.63 4.98-0.63L4.98-0.63ZM9.23-11.18L9.42-11.18Q9.81-11.87 10.13-11.94 10.45-12.01 10.69-12.3L10.69-12.3Q10.79-12.4 10.91-12.55 11.04-12.7 11.18-12.84L11.18-12.84Q11.33-12.94 11.52-13.04 11.72-13.13 11.87-13.28L11.87-13.28Q12.26-13.62 12.52-13.87 12.79-14.11 13.33-14.11L13.33-14.11Q14.16-14.11 14.7-13.7 15.23-13.28 16.02-13.13L16.02-13.13Q16.11-12.84 16.65-12.72 17.19-12.6 17.48-12.4L17.48-12.4Q16.99-13.62 16.72-14.87 16.46-16.11 16.06-17.33L16.06-17.33Q15.77-18.41 15.38-19.46 14.99-20.51 14.6-21.48L14.6-21.48Q14.26-22.46 14.01-23.39 13.77-24.32 13.38-25.2L13.38-25.2Q12.99-24.32 12.6-23.05 12.21-21.78 12.01-20.8L12.01-20.8Q12.01-20.36 11.96-20.12L11.96-20.12Q11.87-19.78 11.77-19.51 11.67-19.24 11.57-18.95L11.57-18.95Q10.94-17.04 10.42-15.09 9.91-13.13 9.23-11.18L9.23-11.18ZM64.06-0.15L64.06-0.15Q63.82 0.1 63.52 0.15 63.23 0.2 62.94 0.2L62.94 0.2Q62.2 0.54 61.37 0.54L61.37 0.54Q60.84 0.24 60.79 0.34 60.74 0.44 60.59 0.54L60.59 0.54Q59.86 0.88 59.27 0.9 58.69 0.93 58.3 1.17L58.3 1.17Q57.91 0.88 57.88 0.32 57.86-0.24 57.76-0.63L57.76-0.63Q57.52-0.98 57.42-1.49 57.32-2 57.27-2.54 57.22-3.08 57.15-3.59 57.08-4.1 56.88-4.49L56.88-4.49Q56.83-4.74 56.86-4.93 56.88-5.13 56.78-5.37L56.78-5.37Q56.83-6.2 56.74-6.69 56.64-7.18 56.54-7.71L56.54-7.71Q56.49-8.01 56.49-8.37 56.49-8.74 56.2-8.94L56.2-8.94Q56.35-9.62 56.25-9.96 56.15-10.3 56.1-10.6L56.1-10.6Q56.05-10.99 56.05-11.45 56.05-11.91 55.95-12.3L55.95-12.3Q55.66-14.65 55.32-16.99 54.98-19.34 54.69-21.68L54.69-21.68Q54.39-21.44 54.27-20.95 54.15-20.46 54.05-20.07L54.05-20.07Q53.76-19.19 53.51-18.26 53.27-17.33 53.02-16.46L53.02-16.46Q52.93-16.06 52.85-15.55 52.78-15.04 52.63-14.65L52.63-14.65Q52.15-13.23 51.78-12.21 51.41-11.18 51.07-10.11L51.07-10.11Q50.97-9.52 50.88-8.98 50.78-8.45 50.68-7.91L50.68-7.91Q50.63-7.62 50.53-7.08 50.44-6.54 50.34-6.3L50.34-6.3Q50.24-6.05 50.17-5.96 50.1-5.86 50.14-5.62L50.14-5.62Q49.66-4.88 49.48-4 49.31-3.13 48.87-2.29L48.87-2.29Q48.87-1.71 48.44-1.27L48.44-1.27Q48.19-1.22 47.97-1.17 47.75-1.12 47.51-0.98L47.51-0.98Q47.26-1.07 46.95-1.1 46.63-1.12 46.34-1.12L46.34-1.12Q46.09-1.17 45.9-1.29 45.7-1.42 45.46-1.46L45.46-1.46Q45.21-1.76 44.92-1.98 44.63-2.2 44.33-2.44L44.33-2.44Q44.04-3.17 43.8-3.42L43.8-3.42Q43.65-3.96 43.41-4.42 43.16-4.88 43.06-5.47L43.06-5.47Q42.92-6.01 42.7-6.47 42.48-6.93 42.23-7.47L42.23-7.47Q42.14-7.81 42.01-8.13 41.89-8.45 41.75-8.79L41.75-8.79Q41.7-9.18 41.48-9.77 41.26-10.35 41.16-10.79L41.16-10.79Q41.16-10.84 40.99-11.3 40.82-11.77 40.65-12.3 40.48-12.84 40.31-13.28 40.13-13.72 40.09-13.77L40.09-13.77Q39.99-14.01 39.91-14.23 39.84-14.45 39.74-14.75L39.74-14.75Q39.55-15.38 39.26-16.04 38.96-16.7 38.67-17.29L38.67-17.29Q38.43-17.77 38.33-18.24 38.23-18.7 38.08-19.14L38.08-19.14Q37.99-19.38 37.91-19.58 37.84-19.78 37.74-20.02L37.74-20.02Q37.64-20.31 37.55-20.63 37.45-20.95 37.35-21.29L37.35-21.29Q37.11-21.19 37.13-20.87 37.16-20.56 37.11-20.31L37.11-20.31Q37.01-19.78 37.01-19.26 37.01-18.75 36.96-18.21L36.96-18.21Q36.86-17.63 36.77-17.09 36.67-16.55 36.62-16.02L36.62-16.02Q36.62-14.7 36.47-13.38L36.47-13.38Q36.37-12.21 36.23-11.01 36.08-9.81 36.03-8.54L36.03-8.54Q36.03-7.62 35.84-6.71 35.64-5.81 35.74-4.83L35.74-4.83Q35.64-4.64 35.64-4.54 35.64-4.44 35.64-4.25L35.64-4.25Q35.64-4 35.62-3.71 35.59-3.42 35.59-3.17L35.59-3.17Q35.59-2.73 35.69-2.59L35.69-2.59Q35.54-2.15 35.54-1.64 35.54-1.12 35.54-0.63L35.54-0.63Q35.45-0.44 35.42-0.24 35.4-0.05 35.25 0.15L35.25 0.15Q35.3 0.98 34.76 0.98L34.76 0.98Q34.62 0.98 34.45 0.9 34.27 0.83 34.18 0.68L34.18 0.68Q33.64 0.73 33.57 0.44 33.49 0.15 33.25 0.2L33.25 0.2Q32.66 0.44 32.59 0.34 32.52 0.24 32.27 0.29L32.27 0.29Q31.88-0.1 31.76-0.05 31.64 0 31.54 0L31.54 0Q31.1-0.15 31.05-0.07 31 0 30.86 0L30.86 0Q30.61-0.24 30.2-0.24 29.78-0.24 29.49-0.29L29.49-0.29Q29.44-0.49 29.42-0.66 29.39-0.83 29.39-1.07L29.39-1.07Q29.39-1.37 29.42-1.64 29.44-1.9 29.44-2.2L29.44-2.2Q29.44-2.44 29.42-2.71 29.39-2.98 29.39-3.32L29.39-3.32Q29.39-3.66 29.44-3.98 29.49-4.3 29.49-4.69L29.49-4.69Q29.49-4.83 29.44-4.96 29.39-5.08 29.39-5.27L29.39-5.27Q29.68-5.91 29.66-6.27 29.64-6.64 29.68-6.98L29.68-6.98Q29.78-7.81 29.86-8.62 29.93-9.42 30.03-10.25L30.03-10.25Q30.03-11.62 30.1-12.52 30.17-13.43 30.32-14.36L30.32-14.36Q30.42-14.79 30.49-15.19 30.56-15.58 30.66-16.02L30.66-16.02Q30.76-16.75 30.78-17.55 30.81-18.36 30.91-19.14L30.91-19.14Q31-20.36 31.15-21.56 31.3-22.75 31.39-23.93L31.39-23.93Q31.49-24.85 31.61-25.76 31.74-26.66 31.74-27.49L31.74-27.49Q31.74-27.93 31.86-28.61 31.98-29.3 32.03-29.79L32.03-29.79Q32.13-30.96 32.2-32.08 32.27-33.2 32.27-34.33L32.27-34.33 32.27-34.86Q32.27-34.96 32.37-35.06 32.47-35.16 32.47-35.4L32.47-35.4Q32.47-35.84 32.69-36.01 32.91-36.18 33.05-36.57L33.05-36.57Q33.3-36.57 33.62-36.52 33.93-36.47 34.08-36.23L34.08-36.23Q34.42-36.33 34.76-36.33 35.1-36.33 35.35-36.57L35.35-36.57Q35.64-36.57 35.79-36.43 35.94-36.28 36.18-36.18L36.18-36.18Q36.37-36.28 36.57-36.35 36.77-36.43 36.96-36.52L36.96-36.52Q37.11-36.43 37.18-36.3 37.25-36.18 37.4-36.13L37.4-36.13Q38.13-36.33 38.38-36.18L38.38-36.18Q38.47-35.99 38.5-35.79 38.52-35.6 38.57-35.4L38.57-35.4Q39.06-34.91 39.21-34.3 39.35-33.69 39.74-33.2L39.74-33.2Q39.84-32.91 39.96-32.62 40.09-32.32 40.18-31.93L40.18-31.93 40.33-31.35Q40.52-30.86 40.82-30.18L40.82-30.18Q41.06-29.25 41.26-28.27 41.45-27.29 41.89-26.46L41.89-26.46Q41.94-26.17 42.06-25.76 42.19-25.34 42.28-25.05L42.28-25.05Q42.62-24.22 42.99-23.41 43.36-22.61 43.65-21.68L43.65-21.68Q43.94-20.75 44.16-19.78 44.38-18.8 44.72-17.87L44.72-17.87Q45.02-16.99 45.16-16.6 45.31-16.21 45.55-15.82L45.55-15.82Q45.55-15.67 45.63-15.33 45.7-14.99 45.85-14.62 45.99-14.26 46.14-13.94 46.29-13.62 46.43-13.57L46.43-13.57Q46.58-13.67 46.6-13.87 46.63-14.06 46.77-14.21L46.77-14.21Q46.82-14.75 46.95-15.53 47.07-16.31 47.31-16.8L47.31-16.8Q47.31-17.04 47.43-17.7 47.56-18.36 47.75-19.12 47.95-19.87 48.12-20.51 48.29-21.14 48.44-21.29L48.44-21.29Q48.53-21.92 48.61-22.07 48.68-22.22 48.78-22.31L48.78-22.31Q48.83-22.71 48.97-23.05 49.12-23.39 49.17-23.78L49.17-23.78Q49.27-24.61 49.41-25.15 49.56-25.68 49.8-26.46L49.8-26.46Q50-27.15 50.17-27.86 50.34-28.56 50.58-29.25L50.58-29.25Q51.17-31.1 51.63-32.54 52.1-33.98 52.78-35.35L52.78-35.35Q52.93-35.79 53.02-35.89 53.12-35.99 53.22-36.08L53.22-36.08Q53.61-36.23 54.03-36.23 54.44-36.23 54.88-36.18L54.88-36.18Q55.37-36.38 55.61-36.62L55.61-36.62Q55.81-36.38 56.2-36.38L56.2-36.38Q56.69-36.38 56.88-36.67L56.88-36.67Q57.08-36.57 57.2-36.62 57.32-36.67 57.57-36.57L57.57-36.57Q57.66-36.67 57.81-36.79 57.96-36.91 58.1-36.91L58.1-36.91Q58.49-36.43 58.71-36.16 58.93-35.89 59.03-35.55L59.03-35.55Q59.18-35.11 59.2-34.59 59.23-34.08 59.47-33.64L59.47-33.64Q59.42-33.01 59.54-31.71 59.67-30.42 59.84-28.98 60.01-27.54 60.2-26.32 60.4-25.1 60.54-24.8L60.54-24.8Q60.5-24.17 60.59-23.73 60.69-23.29 60.69-22.85L60.69-22.85Q60.69-22.71 60.74-22.24 60.79-21.78 60.84-21.26 60.89-20.75 60.96-20.29 61.03-19.82 61.08-19.63L61.08-19.63Q61.08-18.75 61.37-18.26L61.37-18.26Q61.62-17.04 61.79-15.82 61.96-14.6 62.11-13.33L62.11-13.33Q62.2-12.7 62.23-12.11 62.25-11.52 62.35-10.89L62.35-10.89Q62.4-10.64 62.47-10.4 62.55-10.16 62.6-9.91L62.6-9.91Q62.69-9.42 62.74-8.98 62.79-8.54 62.89-8.11L62.89-8.11Q62.94-7.86 63.03-7.59 63.13-7.32 63.03-7.03L63.03-7.03Q63.13-6.69 63.11-6.3 63.08-5.91 63.28-5.62L63.28-5.62Q63.28-4.59 63.43-3.81L63.43-3.81Q63.47-3.22 63.72-2.64L63.72-2.64Q63.82-2.05 63.89-1.42 63.96-0.78 64.06-0.15Z" opacity="1" transform="matrix(1,0,0,1,0,0)" fill="#e47161" class="wordmark-text-0" data-fill-palette-color="primary" id="text-0"></path></svg></g></svg></g></svg></g></svg></g><g></g></svg></g><defs></defs></svg><rect width="395.52" height="234.55951588502268" fill="none" stroke="none" visibility="hidden"></rect></g></svg></g></svg>