{"extensionsUsed" : ["KHR_materials_unlit"], "accessors" : [{"bufferView" : 0, "byteOffset" : 0, "componentType" : 5123, "count" : 240, "type" : "SCALAR", "max" : [203], "min" : [0]}, {"bufferView" : 1, "byteOffset" : 0, "componentType" : 5126, "count" : 204, "type" : "VEC3", "max" : [1.8012499809265137, 2.221560001373291, 2.2273800373077393], "min" : [-1.8012499809265137, -2.183229923248291, -2.7060399055480957], "name" : "POSITION"}, {"bufferView" : 1, "byteOffset" : 12, "componentType" : 5126, "count" : 204, "type" : "VEC3", "max" : [1.0000044107437134, 0.9294054508209229, 0.9171244502067566], "min" : [-1.0000044107437134, -0.9324342608451843, -0.9942848682403564], "name" : "NORMAL"}, {"bufferView" : 1, "byteOffset" : 24, "componentType" : 5126, "count" : 204, "type" : "VEC2", "max" : [0.9861500263214111, 1.9718999862670898], "min" : [0.02865999937057495, 1.0154900550842285], "name" : "TEXCOORD_0"}, {"bufferView" : 0, "byteOffset" : 480, "componentType" : 5123, "count" : 1428, "type" : "SCALAR", "max" : [1120], "min" : [0]}, {"bufferView" : 2, "byteOffset" : 0, "componentType" : 5126, "count" : 1121, "type" : "VEC3", "max" : [0.43327999114990234, 0.27592578530311584, 5.757699966430664], "min" : [-0.45080000162124634, -0.6174542307853699, 4.787759780883789], "name" : "POSITION"}, {"bufferView" : 2, "byteOffset" : 12, "componentType" : 5126, "count" : 1121, "type" : "VEC3", "max" : [0.999910295009613, 0.9992601275444031, 0.99874347448349], "min" : [-0.9994475245475769, -0.9997040629386902, -0.9988309741020203], "name" : "NORMAL"}, {"bufferView" : 2, "byteOffset" : 24, "componentType" : 5126, "count" : 1121, "type" : "VEC2", "max" : [0.9839299917221069, 1.974810004234314], "min" : [0.34773001074790955, 1.6142100095748901], "name" : "TEXCOORD_0"}, {"bufferView" : 0, "byteOffset" : 3336, "componentType" : 5123, "count" : 1428, "type" : "SCALAR", "max" : [1201], "min" : [0]}, {"bufferView" : 3, "byteOffset" : 0, "componentType" : 5126, "count" : 1202, "type" : "VEC3", "max" : [0.4359099864959717, 0.28085580468177795, 5.767509937286377], "min" : [-0.45368000864982605, -0.6273542046546936, 4.778890132904053], "name" : "POSITION"}, {"bufferView" : 3, "byteOffset" : 12, "componentType" : 5126, "count" : 1202, "type" : "VEC3", "max" : [0.9993987083435059, 0.9997390508651733, 0.9988497495651245], "min" : [-0.9998733401298523, -0.9992830157279968, -0.9987126588821411], "name" : "NORMAL"}, {"bufferView" : 3, "byteOffset" : 24, "componentType" : 5126, "count" : 1202, "type" : "VEC2", "max" : [0.9839299917221069, 1.974810004234314], "min" : [0.34773001074790955, 1.6142100095748901], "name" : "TEXCOORD_0"}, {"bufferView" : 0, "byteOffset" : 6192, "componentType" : 5123, "count" : 14172, "type" : "SCALAR", "max" : [11214], "min" : [0]}, {"bufferView" : 4, "byteOffset" : 0, "componentType" : 5126, "count" : 11215, "type" : "VEC3", "max" : [2.2763400077819824, 0.27094578742980957, 5.664330005645752], "min" : [-2.2763400077819824, -0.5559642314910889, 0.34512001276016235], "name" : "POSITION"}, {"bufferView" : 4, "byteOffset" : 12, "componentType" : 5126, "count" : 11215, "type" : "VEC3", "max" : [0.9996728897094727, 0.9999960064888, 0.9711529612541199], "min" : [-0.9996728897094727, -0.9999111294746399, -0.9997437000274658], "name" : "NORMAL"}, {"bufferView" : 4, "byteOffset" : 24, "componentType" : 5126, "count" : 11215, "type" : "VEC2", "max" : [0.9960299730300903, 1.9882800579071045], "min" : [0.00860000029206276, 1], "name" : "TEXCOORD_0"}, {"bufferView" : 0, "byteOffset" : 34536, "componentType" : 5123, "count" : 14076, "type" : "SCALAR", "max" : [12243], "min" : [0]}, {"bufferView" : 5, "byteOffset" : 0, "componentType" : 5126, "count" : 12244, "type" : "VEC3", "max" : [2.285599946975708, 0.28092578053474426, 5.674039840698242], "min" : [-2.285599946975708, -0.5650442242622375, 0.34512001276016235], "name" : "POSITION"}, {"bufferView" : 5, "byteOffset" : 12, "componentType" : 5126, "count" : 12244, "type" : "VEC3", "max" : [0.9998258352279663, 0.9998927712440491, 0.9997275471687317], "min" : [-0.9998263120651245, -0.9999964833259583, -0.9710029363632202], "name" : "NORMAL"}, {"bufferView" : 5, "byteOffset" : 24, "componentType" : 5126, "count" : 12244, "type" : "VEC2", "max" : [0.9960299730300903, 1.9882800579071045], "min" : [0.00860000029206276, 1], "name" : "TEXCOORD_0"}, {"bufferView" : 0, "byteOffset" : 62688, "componentType" : 5123, "count" : 2106, "type" : "SCALAR", "max" : [1654], "min" : [0]}, {"bufferView" : 6, "byteOffset" : 0, "componentType" : 5126, "count" : 1655, "type" : "VEC3", "max" : [0.4652799963951111, 0.3377157747745514, 5.81742000579834], "min" : [-0.4652799963951111, -0.924714207649231, 0.020810000598430634], "name" : "POSITION"}, {"bufferView" : 6, "byteOffset" : 12, "componentType" : 5126, "count" : 1655, "type" : "VEC3", "max" : [0.9999744296073914, 0.9996565580368042, 0.9993336200714111], "min" : [-0.9999744296073914, -0.9814006090164185, -0.9999986290931702], "name" : "NORMAL"}, {"bufferView" : 6, "byteOffset" : 24, "componentType" : 5126, "count" : 1655, "type" : "VEC2", "max" : [0.9849399924278259, 1.9492199420928955], "min" : [0.019530000165104866, 1.0002700090408325], "name" : "TEXCOORD_0"}, {"bufferView" : 0, "byteOffset" : 66900, "componentType" : 5123, "count" : 1938, "type" : "SCALAR", "max" : [1685], "min" : [0]}, {"bufferView" : 7, "byteOffset" : 0, "componentType" : 5126, "count" : 1686, "type" : "VEC3", "max" : [0.47527000308036804, 0.347715824842453, 5.8273701667785645], "min" : [-0.47527000308036804, -0.9223842620849609, 0.010809999890625477], "name" : "POSITION"}, {"bufferView" : 7, "byteOffset" : 12, "componentType" : 5126, "count" : 1686, "type" : "VEC3", "max" : [0.9999458193778992, 0.9908199906349182, 1.0000026226043701], "min" : [-0.9999458193778992, -0.9996864795684814, -0.9996709823608398], "name" : "NORMAL"}, {"bufferView" : 7, "byteOffset" : 24, "componentType" : 5126, "count" : 1686, "type" : "VEC2", "max" : [0.9849399924278259, 1.9492199420928955], "min" : [0.019530000165104866, 1.0002700090408325], "name" : "TEXCOORD_0"}, {"bufferView" : 0, "byteOffset" : 70776, "componentType" : 5123, "count" : 2448, "type" : "SCALAR", "max" : [1965], "min" : [0]}, {"bufferView" : 8, "byteOffset" : 0, "componentType" : 5126, "count" : 1966, "type" : "VEC3", "max" : [1.8024499416351318, 0.32129576802253723, 4.658919811248779], "min" : [-1.8024499416351318, -0.28564420342445374, 2.377969980239868], "name" : "POSITION"}, {"bufferView" : 8, "byteOffset" : 12, "componentType" : 5126, "count" : 1966, "type" : "VEC3", "max" : [0.9975491166114807, 1.0000044107437134, 0.9941799640655518], "min" : [-0.9975491166114807, -0.9999731183052063, -0.990439772605896], "name" : "NORMAL"}, {"bufferView" : 8, "byteOffset" : 24, "componentType" : 5126, "count" : 1966, "type" : "VEC2", "max" : [0.7734400033950806, 1.9997299909591675], "min" : [0.019530000165104866, 1.0117199420928955], "name" : "TEXCOORD_0"}, {"bufferView" : 0, "byteOffset" : 75672, "componentType" : 5123, "count" : 2100, "type" : "SCALAR", "max" : [1779], "min" : [0]}, {"bufferView" : 9, "byteOffset" : 0, "componentType" : 5126, "count" : 1780, "type" : "VEC3", "max" : [1.8123899698257446, 0.33109578490257263, 4.668759822845459], "min" : [-1.8123899698257446, -0.28564420342445374, 2.377969980239868], "name" : "POSITION"}, {"bufferView" : 9, "byteOffset" : 12, "componentType" : 5126, "count" : 1780, "type" : "VEC3", "max" : [0.9975836873054504, 0.9999062418937683, 0.9904908537864685], "min" : [-0.9975836873054504, -1.0000044107437134, -0.9834012985229492], "name" : "NORMAL"}, {"bufferView" : 9, "byteOffset" : 24, "componentType" : 5126, "count" : 1780, "type" : "VEC2", "max" : [0.7734400033950806, 1.9997299909591675], "min" : [0.019530000165104866, 1.0117199420928955], "name" : "TEXCOORD_0"}, {"bufferView" : 0, "byteOffset" : 79872, "componentType" : 5123, "count" : 19056, "type" : "SCALAR", "max" : [18422], "min" : [0]}, {"bufferView" : 10, "byteOffset" : 0, "componentType" : 5126, "count" : 18423, "type" : "VEC3", "max" : [28.114360809326172, 18.37306022644043, 34.026458740234375], "min" : [-46.04248809814453, -58.81766891479492, -43.01448059082031], "name" : "POSITION"}, {"bufferView" : 10, "byteOffset" : 12, "componentType" : 5126, "count" : 18423, "type" : "VEC3", "max" : [0.9877249598503113, 0.9769440293312073, 1.0000044107437134], "min" : [-0.9874957799911499, -0.9924981594085693, -0.996793806552887], "name" : "NORMAL"}], "asset" : {"generator" : "Aspose.3D 24.1.0", "version" : "2.0"}, "buffers" : [{"uri" : "data:application/octet-stream;base64,", "byteLength" : 1853324}], "bufferViews" : [{"buffer" : 0, "byteOffset" : 0, "byteLength" : 117984, "target" : 34963}, {"buffer" : 0, "byteOffset" : 117988, "byteLength" : 7680, "byteStride" : 32, "target" : 34962}, {"buffer" : 0, "byteOffset" : 125672, "byteLength" : 45696, "byteStride" : 32, "target" : 34962}, {"buffer" : 0, "byteOffset" : 171372, "byteLength" : 45696, "byteStride" : 32, "target" : 34962}, {"buffer" : 0, "byteOffset" : 217072, "byteLength" : 453504, "byteStride" : 32, "target" : 34962}, {"buffer" : 0, "byteOffset" : 670580, "byteLength" : 450432, "byteStride" : 32, "target" : 34962}, {"buffer" : 0, "byteOffset" : 1121016, "byteLength" : 67392, "byteStride" : 32, "target" : 34962}, {"buffer" : 0, "byteOffset" : 1188412, "byteLength" : 62016, "byteStride" : 32, "target" : 34962}, {"buffer" : 0, "byteOffset" : 1250432, "byteLength" : 78336, "byteStride" : 32, "target" : 34962}, {"buffer" : 0, "byteOffset" : 1328772, "byteLength" : 67200, "byteStride" : 32, "target" : 34962}, {"buffer" : 0, "byteOffset" : 1395976, "byteLength" : 457344, "byteStride" : 24, "target" : 34962}], "images" : [{"uri" : "textures/laptop_tex_emissive.png"}, {"uri" : "textures/laptop_tex_baseColor.png"}, {"uri" : "textures/cloth_baseColor.png"}, {"uri" : "textures/body_baseColor.png"}], "materials" : [{"name" : "laptop_tex", "extensions" : {"KHR_materials_unlit" : {}}, "pbrMetallicRoughness" : {"baseColorFactor" : [1, 1, 1, 1], "baseColorTexture" : {"index" : 1, "texCoord" : 0}, "metallicFactor" : 0, "roughnessFactor" : 1}, "emissiveTexture" : {"index" : 0, "texCoord" : 0}, "emissiveFactor" : [0.1, 0.1, 0.1], "alphaMode" : "OPAQUE", "doubleSided" : true}, {"name" : "cloth", "extensions" : {"KHR_materials_unlit" : {}}, "pbrMetallicRoughness" : {"baseColorFactor" : [1, 1, 1, 1], "baseColorTexture" : {"index" : 2, "texCoord" : 0}, "metallicFactor" : 0, "roughnessFactor" : 1}, "emissiveTexture" : {"index" : 2, "texCoord" : 0}, "emissiveFactor" : [0.1, 0.1, 0.1], "alphaMode" : "OPAQUE", "doubleSided" : true}, {"name" : "solidify", "extensions" : {"KHR_materials_unlit" : {}}, "pbrMetallicRoughness" : {"baseColorFactor" : [0.0229039986, 0.0229039986, 0.0229039986, 1], "metallicFactor" : 0, "roughnessFactor" : 1}, "emissiveFactor" : [0.0012216147, 0.0012216147, 0.0012216147], "alphaMode" : "OPAQUE", "doubleSided" : false}, {"name" : "body", "extensions" : {"KHR_materials_unlit" : {}}, "pbrMetallicRoughness" : {"baseColorFactor" : [1, 1, 1, 1], "baseColorTexture" : {"index" : 3, "texCoord" : 0}, "metallicFactor" : 0, "roughnessFactor" : 1}, "emissiveTexture" : {"index" : 3, "texCoord" : 0}, "emissiveFactor" : [0.1, 0.1, 0.1], "alphaMode" : "OPAQUE", "doubleSided" : true}, {"name" : "solidify", "extensions" : {"KHR_materials_unlit" : {}}, "pbrMetallicRoughness" : {"baseColorFactor" : [0.0229039986, 0.0229039986, 0.0229039986, 1], "metallicFactor" : 0, "roughnessFactor" : 1}, "emissiveFactor" : [0.0012216147, 0.0012216147, 0.0012216147], "alphaMode" : "OPAQUE", "doubleSided" : false}, {"name" : "cloth", "extensions" : {"KHR_materials_unlit" : {}}, "pbrMetallicRoughness" : {"baseColorFactor" : [1, 1, 1, 1], "baseColorTexture" : {"index" : 2, "texCoord" : 0}, "metallicFactor" : 0, "roughnessFactor" : 1}, "emissiveTexture" : {"index" : 2, "texCoord" : 0}, "emissiveFactor" : [0.1, 0.1, 0.1], "alphaMode" : "OPAQUE", "doubleSided" : true}, {"name" : "solidify", "extensions" : {"KHR_materials_unlit" : {}}, "pbrMetallicRoughness" : {"baseColorFactor" : [0.0229039986, 0.0229039986, 0.0229039986, 1], "metallicFactor" : 0, "roughnessFactor" : 1}, "emissiveFactor" : [0.0012216147, 0.0012216147, 0.0012216147], "alphaMode" : "OPAQUE", "doubleSided" : false}, {"name" : "cloth", "extensions" : {"KHR_materials_unlit" : {}}, "pbrMetallicRoughness" : {"baseColorFactor" : [1, 1, 1, 1], "baseColorTexture" : {"index" : 2, "texCoord" : 0}, "metallicFactor" : 0, "roughnessFactor" : 1}, "emissiveTexture" : {"index" : 2, "texCoord" : 0}, "emissiveFactor" : [0.1, 0.1, 0.1], "alphaMode" : "OPAQUE", "doubleSided" : true}, {"name" : "solidify", "extensions" : {"KHR_materials_unlit" : {}}, "pbrMetallicRoughness" : {"baseColorFactor" : [0.0229039986, 0.0229039986, 0.0229039986, 1], "metallicFactor" : 0, "roughnessFactor" : 1}, "emissiveFactor" : [0.0012216147, 0.0012216147, 0.0012216147], "alphaMode" : "OPAQUE", "doubleSided" : false}, {"name" : "Material", "extensions" : {"KHR_materials_unlit" : {}}, "pbrMetallicRoughness" : {"baseColorFactor" : [1, 1, 1, 1], "metallicFactor" : 0, "roughnessFactor" : 1}, "emissiveFactor" : [0.01019747034, 0.04868825376, 0.00281095877], "alphaMode" : "OPAQUE", "doubleSided" : true}], "meshes" : [{"primitives" : [{"attributes" : {"POSITION" : 1, "NORMAL" : 2, "TEXCOORD_0" : 3}, "indices" : 0, "material" : 0, "mode" : 4}]}, {"primitives" : [{"attributes" : {"POSITION" : 5, "NORMAL" : 6, "TEXCOORD_0" : 7}, "indices" : 4, "material" : 1, "mode" : 4}]}, {"primitives" : [{"attributes" : {"POSITION" : 9, "NORMAL" : 10, "TEXCOORD_0" : 11}, "indices" : 8, "material" : 2, "mode" : 4}]}, {"primitives" : [{"attributes" : {"POSITION" : 13, "NORMAL" : 14, "TEXCOORD_0" : 15}, "indices" : 12, "material" : 3, "mode" : 4}]}, {"primitives" : [{"attributes" : {"POSITION" : 17, "NORMAL" : 18, "TEXCOORD_0" : 19}, "indices" : 16, "material" : 4, "mode" : 4}]}, {"primitives" : [{"attributes" : {"POSITION" : 21, "NORMAL" : 22, "TEXCOORD_0" : 23}, "indices" : 20, "material" : 5, "mode" : 4}]}, {"primitives" : [{"attributes" : {"POSITION" : 25, "NORMAL" : 26, "TEXCOORD_0" : 27}, "indices" : 24, "material" : 6, "mode" : 4}]}, {"primitives" : [{"attributes" : {"POSITION" : 29, "NORMAL" : 30, "TEXCOORD_0" : 31}, "indices" : 28, "material" : 7, "mode" : 4}]}, {"primitives" : [{"attributes" : {"POSITION" : 33, "NORMAL" : 34, "TEXCOORD_0" : 35}, "indices" : 32, "material" : 8, "mode" : 4}]}, {"primitives" : [{"attributes" : {"POSITION" : 37, "NORMAL" : 38}, "indices" : 36, "material" : 9, "mode" : 4}]}], "nodes" : [{"mesh" : 0, "name" : "Cube.005_0"}, {"children" : [0], "matrix" : [0.14949000000000004, 0, -0, 0, 0, -0.10802000000000002, 0.10334, 0, 0, -0.10334, -0.10802000000000002, 0, -0.03330000000000001, -0.44151000000000007, -0.46698000000000006, 1], "name" : "Cube.005"}, {"mesh" : 1, "name" : "hair_0"}, {"mesh" : 2, "name" : "hair_1"}, {"mesh" : 3, "name" : "me_0"}, {"mesh" : 4, "name" : "me_1"}, {"mesh" : 5, "name" : "me.002_0"}, {"mesh" : 6, "name" : "me.002_1"}, {"mesh" : 7, "name" : "kemeja_0"}, {"mesh" : 8, "name" : "kemeja_1"}, {"children" : [2, 3, 4, 5, 6, 7, 8, 9], "matrix" : [1, 0, -0, 0, 0, 0.30305000000000004, 0.95298, 0, 0, -0.95298, 0.30305000000000004, 0, 0, 0.7518400000000002, -0.08611000000000002, 1], "name" : "my_rig"}, {"mesh" : 9, "name" : "bool1.185_0"}, {"children" : [11], "matrix" : [0.06070000000000001, -0.08466000000000003, 0.021680000000000005, 0, 0.08171000000000002, 0.04561000000000002, -0.05064000000000001, 0, 0.031000000000000007, 0.04554000000000001, 0.09103000000000003, 0, 2.40321, 0.7518700000000001, -0.42821000000000004, 1], "name" : "bool1.185"}, {"children" : [1, 10, 12], "name" : "Root"}, {"children" : [13], "matrix" : [1, 0, 0, 0, 0, 2.220446049250313E-16, -1, 0, 0, 1, 2.220446049250313E-16, 0, 0, 0, 0, 1], "name" : "Sketchfab_model"}], "samplers" : [{"magFilter" : 9729, "minFilter" : 9987, "wrapS" : 10497, "wrapT" : 10497}, {"magFilter" : 9729, "minFilter" : 9987, "wrapS" : 10497, "wrapT" : 10497}, {"magFilter" : 9729, "minFilter" : 9987, "wrapS" : 10497, "wrapT" : 10497}, {"magFilter" : 9729, "minFilter" : 9987, "wrapS" : 10497, "wrapT" : 10497}], "scene" : 0, "scenes" : [{"nodes" : [14]}], "textures" : [{"sampler" : 0, "source" : 0, "name" : ""}, {"sampler" : 1, "source" : 1, "name" : ""}, {"sampler" : 2, "source" : 2, "name" : ""}, {"sampler" : 3, "source" : 3, "name" : ""}]}